<svg xmlns="http://www.w3.org/2000/svg" viewBox="33.50 1.00 26.90 38.50"><path fill-rule="evenodd" clip-rule="evenodd" fill="#321879" d="M47,7.3c1.7,0,3.1-1.4,3.1-3.1C50.1,2.4,48.7,1,47,1c-1.7,0-3.1,1.4-3.1,3.1C43.9,5.9,45.2,7.3,47,7.3z M33.5,4.2c0-1.7,1.4-3.1,3.1-3.1c1.7,0,3.1,1.4,3.1,3.1c0,1.7-1.4,3.1-3.1,3.1C34.9,7.3,33.5,5.9,33.5,4.2z M57.3,7.3  c1.7,0,3.1-1.4,3.1-3.1C60.4,2.4,59,1,57.3,1c-1.7,0-3.1,1.4-3.1,3.1C54.2,5.9,55.6,7.3,57.3,7.3z M44.3,31.9c-0.1,1.4-0.9,2.2-2.4,2.2h0  c-1.6,0-2.4-0.9-2.4-2.6V11.8h-5.6v19.7c0,5.3,2.7,8,8,8c2.2,0,3.9-0.4,5.2-1.3c1.3,0.9,3,1.3,5.2,1.3c5.3,0,8-2.7,8-8V11.8h-5.6  v19.7c0,1.7-0.8,2.6-2.4,2.6h0c-1.5,0-2.3-0.7-2.4-2.2V11.8h-5.6V31.9z"/></svg>